<svg xmlns="http://www.w3.org/2000/svg" xmlns:xlink="http://www.w3.org/1999/xlink" version="1.0" x="0" y="0" width="2400" height="346.0689344122641" viewBox="41.53610809326172 106.4760952758789 256.92778381347654 37.04780181884766" preserveAspectRatio="xMidYMid meet" color-interpolation-filters="sRGB"><g><defs><linearGradient id="92" x1="0%" y1="0%" x2="100%" y2="0%"><stop offset="0%" stop-color="#fa71cd"></stop> <stop offset="100%" stop-color="#9b59b6"></stop></linearGradient><linearGradient id="93" x1="0%" y1="0%" x2="100%" y2="0%"><stop offset="0%" stop-color="#f9d423"></stop> <stop offset="100%" stop-color="#f83600"></stop></linearGradient><linearGradient id="94" x1="0%" y1="0%" x2="100%" y2="0%"><stop offset="0%" stop-color="#0064d2"></stop> <stop offset="100%" stop-color="#1cb0f6"></stop></linearGradient><linearGradient id="95" x1="0%" y1="0%" x2="100%" y2="0%"><stop offset="0%" stop-color="#f00978"></stop> <stop offset="100%" stop-color="#3f51b1"></stop></linearGradient><linearGradient id="96" x1="0%" y1="0%" x2="100%" y2="0%"><stop offset="0%" stop-color="#7873f5"></stop> <stop offset="100%" stop-color="#ec77ab"></stop></linearGradient><linearGradient id="97" x1="0%" y1="0%" x2="100%" y2="0%"><stop offset="0%" stop-color="#f9d423"></stop> <stop offset="100%" stop-color="#e14fad"></stop></linearGradient><linearGradient id="98" x1="0%" y1="0%" x2="100%" y2="0%"><stop offset="0%" stop-color="#009efd"></stop> <stop offset="100%" stop-color="#2af598"></stop></linearGradient><linearGradient id="99" x1="0%" y1="0%" x2="100%" y2="0%"><stop offset="0%" stop-color="#ffcc00"></stop> <stop offset="100%" stop-color="#00b140"></stop></linearGradient><linearGradient id="100" x1="0%" y1="0%" x2="100%" y2="0%"><stop offset="0%" stop-color="#d51007"></stop> <stop offset="100%" stop-color="#ff8177"></stop></linearGradient><linearGradient id="102" x1="0%" y1="0%" x2="100%" y2="0%"><stop offset="0%" stop-color="#a2b6df"></stop> <stop offset="100%" stop-color="#0c3483"></stop></linearGradient><linearGradient id="103" x1="0%" y1="0%" x2="100%" y2="0%"><stop offset="0%" stop-color="#7ac5d8"></stop> <stop offset="100%" stop-color="#eea2a2"></stop></linearGradient><linearGradient id="104" x1="0%" y1="0%" x2="100%" y2="0%"><stop offset="0%" stop-color="#00ecbc"></stop> <stop offset="100%" stop-color="#007adf"></stop></linearGradient><linearGradient id="105" x1="0%" y1="0%" x2="100%" y2="0%"><stop offset="0%" stop-color="#b88746"></stop> <stop offset="100%" stop-color="#fdf5a6"></stop></linearGradient></defs><g fill="#333333" class="endsvg" transform="translate(44.05500793457031,108.99499893188477)"><g class="tp-name"><g><rect stroke-width="2" class="i-icon-bg" x="0" y="0" width="251.88998413085938" height="32.01000213623047" fill-opacity="0" stroke="rgb(51, 51, 51)"></rect> </g> <g transform="translate(0,0)"><g mask="url(#98571553-b1da-4cce-ab1b-f806de633002)"><g><rect stroke-width="2" class="i-icon-bg" x="0" y="0" width="124.33999633789062" height="32.01000213623047"></rect> </g> <g transform="translate(5,5)"><g><g transform="scale(1)"><path d="M18.30-14.98L18.30-14.98Q18.30-11.29 15.79-9.19Q13.28-7.09 8.92-7.09L8.92-7.09L7.67-7.09L6.20 0L0.48 0L5.00-21.39L10.46-21.39Q14.25-21.39 16.27-19.73Q18.30-18.07 18.30-14.98ZM9.74-16.72L8.69-11.78L9.61-11.78Q10.94-11.78 11.76-12.63Q12.58-13.49 12.58-14.80L12.58-14.80Q12.58-15.67 12.05-16.19Q11.53-16.72 10.61-16.72L10.61-16.72L9.74-16.72ZM31.79-21.72L31.79-21.72Q35.59-21.72 37.70-19.55Q39.82-17.38 39.82-13.49L39.82-13.49Q39.82-9.60 38.36-6.37Q36.91-3.15 34.35-1.43Q31.79 0.29 28.41 0.29L28.41 0.29Q24.47 0.29 22.33-1.89Q20.19-4.07 20.19-7.94L20.19-7.94Q20.19-11.82 21.69-15.07Q23.20-18.31 25.80-20.02Q28.39-21.72 31.79-21.72ZM34.04-13.43L34.04-13.43Q34.04-15.10 33.34-16.04Q32.64-16.98 31.30-16.98L31.30-16.98Q29.86-16.98 28.64-15.75Q27.43-14.53 26.70-12.38Q25.98-10.23 25.98-7.97L25.98-7.97Q25.98-4.43 28.91-4.43L28.91-4.43Q30.30-4.43 31.49-5.65Q32.68-6.86 33.36-8.92Q34.04-10.99 34.04-13.43ZM53.63-16.95L53.63-16.95Q52.05-16.95 50.77-15.81Q49.50-14.67 48.78-12.67Q48.05-10.66 48.05-8.32L48.05-8.32Q48.05-6.36 48.87-5.40Q49.69-4.43 51.23-4.43L51.23-4.43Q52.44-4.43 53.69-4.73Q54.93-5.03 56.61-5.75L56.61-5.75L56.61-1.02Q53.64 0.29 50.17 0.29L50.17 0.29Q46.37 0.29 44.32-1.88Q42.26-4.05 42.26-8.03L42.26-8.03Q42.26-11.92 43.75-15.17Q45.23-18.42 47.78-20.07Q50.34-21.72 53.63-21.72L53.63-21.72Q57.50-21.72 60.66-19.81L60.66-19.81L58.50-15.35Q57.14-16.15 56.00-16.55Q54.86-16.95 53.63-16.95ZM73.81-11.53L77.76 0L71.36 0L68.81-8.46L67.39-7.64L65.81 0L60.09 0L64.61-21.39L70.33-21.39L68.36-12.26L68.91-13.12Q70.20-15.21 70.82-15.97L70.82-15.97L75.16-21.39L81.87-21.39L73.81-11.53ZM93.83-4.71L92.83 0L80.13 0L84.65-21.39L97.35-21.39L96.40-16.75L89.42-16.75L88.73-13.38L95.23-13.38L94.18-8.75L87.68-8.75L86.85-4.71L93.83-4.71ZM109.13-16.66L105.66 0L99.94 0L103.41-16.66L98.77-16.66L99.78-21.39L114.82-21.39L113.78-16.66L109.13-16.66Z" transform="translate(-0.48273230299561143, 21.722953634802515)"></path></g></g></g></g> <g transform="translate(124.33999633789062,0)"><g><rect stroke-width="2" class="i-icon-bg" x="0" y="0" width="127.54999542236328" height="32.01000213623047" fill-opacity="0"></rect> </g> <g transform="translate(5,5)"><g fill="#1eadef"><g transform="scale(1)"><path d="M13.09-5.90L13.09-5.90Q13.09-4.05 12.13-2.61Q11.18-1.17 9.51-0.44Q7.84 0.29 5.57 0.29L5.57 0.29Q4.29 0.29 3.05 0.04Q1.81-0.20 0.54-0.80L0.54-0.80L0.54-2.40Q2.93-1.05 5.63-1.05L5.63-1.05Q8.38-1.05 9.95-2.32Q11.53-3.58 11.53-5.72L11.53-5.72Q11.53-6.61 11.28-7.25Q11.03-7.88 10.51-8.40Q9.99-8.91 9.18-9.39Q8.37-9.87 7.26-10.49L7.26-10.49Q5.06-11.60 4.19-12.89Q3.32-14.17 3.32-15.90L3.32-15.90Q3.32-17.63 4.18-18.94Q5.05-20.25 6.60-20.97Q8.15-21.69 10.06-21.69L10.06-21.69Q11.51-21.69 12.70-21.44Q13.88-21.18 15.15-20.55L15.15-20.55L14.69-19.18Q13.72-19.76 12.47-20.10Q11.22-20.44 10.06-20.44L10.06-20.44Q7.68-20.44 6.27-19.23Q4.86-18.02 4.86-16.03L4.86-16.03Q4.86-14.53 5.57-13.55Q6.29-12.57 8.24-11.60L8.24-11.60Q10.49-10.44 11.36-9.70Q12.23-8.95 12.66-8.05Q13.09-7.14 13.09-5.90ZM25.56-20.01L21.33 0L19.84 0L24.06-20.01L17.74-20.01L18.04-21.39L32.27-21.39L31.99-20.01L25.56-20.01ZM49.85-13.33L49.85-13.33Q49.85-9.60 48.48-6.28Q47.10-2.97 44.79-1.34Q42.48 0.29 39.45 0.29L39.45 0.29Q35.80 0.29 33.82-1.89Q31.85-4.07 31.85-8.18L31.85-8.18Q31.85-12.01 33.21-15.16Q34.57-18.31 36.94-20.00Q39.31-21.69 42.39-21.69L42.39-21.69Q46.01-21.69 47.93-19.52Q49.85-17.35 49.85-13.33ZM42.19-20.32L42.19-20.32Q39.64-20.32 37.68-18.84Q35.71-17.36 34.54-14.48Q33.37-11.60 33.37-8.38L33.37-8.38Q33.37-4.80 34.97-2.93Q36.57-1.05 39.64-1.05L39.64-1.05Q42.11-1.05 44.03-2.49Q45.95-3.93 47.10-6.88Q48.26-9.83 48.26-13.18L48.26-13.18Q48.26-16.69 46.73-18.50Q45.20-20.32 42.19-20.32ZM60.39-9.26L55.66-9.26L53.74 0L52.24 0L56.77-21.39L61.20-21.39Q67.49-21.39 67.49-16.12L67.49-16.12Q67.49-13.46 65.98-11.69Q64.47-9.92 61.86-9.46L61.86-9.46Q64.80-0.82 65.10 0L65.10 0L63.47 0L60.39-9.26ZM58.00-20.04L55.98-10.61L59.67-10.61Q62.71-10.61 64.31-12.00Q65.90-13.40 65.90-16.12L65.90-16.12Q65.90-20.04 61.09-20.04L61.09-20.04L58.00-20.04ZM79.93-1.38L79.62 0L68.99 0L73.52-21.39L84.16-21.39L83.85-20.01L74.72-20.01L73.01-11.92L81.64-11.92L81.33-10.55L72.73-10.55L70.76-1.38L79.93-1.38ZM84.30-0.80L84.30-0.80Q84.30-1.62 84.67-2.10Q85.03-2.57 85.68-2.57L85.68-2.57Q86.64-2.57 86.64-1.52L86.64-1.52Q86.64-0.75 86.28-0.24Q85.91 0.26 85.30 0.26L85.30 0.26Q84.30 0.26 84.30-0.80ZM93.14 0L91.69 0L96.22-21.39L97.66-21.39L93.14 0ZM118.09-13.33L118.09-13.33Q118.09-9.60 116.72-6.28Q115.34-2.97 113.03-1.34Q110.72 0.29 107.69 0.29L107.69 0.29Q104.04 0.29 102.06-1.89Q100.09-4.07 100.09-8.18L100.09-8.18Q100.09-12.01 101.45-15.16Q102.81-18.31 105.18-20.00Q107.55-21.69 110.63-21.69L110.63-21.69Q114.25-21.69 116.17-19.52Q118.09-17.35 118.09-13.33ZM110.43-20.32L110.43-20.32Q107.88-20.32 105.92-18.84Q103.95-17.36 102.78-14.48Q101.61-11.60 101.61-8.38L101.61-8.38Q101.61-4.80 103.21-2.93Q104.81-1.05 107.88-1.05L107.88-1.05Q110.36-1.05 112.27-2.49Q114.19-3.93 115.34-6.88Q116.50-9.83 116.50-13.18L116.50-13.18Q116.50-16.69 114.97-18.50Q113.44-20.32 110.43-20.32Z" transform="translate(-0.5412453094193219, 21.722953634802515)"></path></g></g></g></g></g></g> </g><mask id="98571553-b1da-4cce-ab1b-f806de633002"><g fill="white"><rect stroke-width="2" class="i-icon-bg" x="0" y="0" width="124.33999633789062" height="32.01000213623047"></rect> </g> <g transform="translate(5,5)" fill="black"><g><g transform="scale(1)"><path d="M18.30-14.98L18.30-14.98Q18.30-11.29 15.79-9.19Q13.28-7.09 8.92-7.09L8.92-7.09L7.67-7.09L6.20 0L0.48 0L5.00-21.39L10.46-21.39Q14.25-21.39 16.27-19.73Q18.30-18.07 18.30-14.98ZM9.74-16.72L8.69-11.78L9.61-11.78Q10.94-11.78 11.76-12.63Q12.58-13.49 12.58-14.80L12.58-14.80Q12.58-15.67 12.05-16.19Q11.53-16.72 10.61-16.72L10.61-16.72L9.74-16.72ZM31.79-21.72L31.79-21.72Q35.59-21.72 37.70-19.55Q39.82-17.38 39.82-13.49L39.82-13.49Q39.82-9.60 38.36-6.37Q36.91-3.15 34.35-1.43Q31.79 0.29 28.41 0.29L28.41 0.29Q24.47 0.29 22.33-1.89Q20.19-4.07 20.19-7.94L20.19-7.94Q20.19-11.82 21.69-15.07Q23.20-18.31 25.80-20.02Q28.39-21.72 31.79-21.72ZM34.04-13.43L34.04-13.43Q34.04-15.10 33.34-16.04Q32.64-16.98 31.30-16.98L31.30-16.98Q29.86-16.98 28.64-15.75Q27.43-14.53 26.70-12.38Q25.98-10.23 25.98-7.97L25.98-7.97Q25.98-4.43 28.91-4.43L28.91-4.43Q30.30-4.43 31.49-5.65Q32.68-6.86 33.36-8.92Q34.04-10.99 34.04-13.43ZM53.63-16.95L53.63-16.95Q52.05-16.95 50.77-15.81Q49.50-14.67 48.78-12.67Q48.05-10.66 48.05-8.32L48.05-8.32Q48.05-6.36 48.87-5.40Q49.69-4.43 51.23-4.43L51.23-4.43Q52.44-4.43 53.69-4.73Q54.93-5.03 56.61-5.75L56.61-5.75L56.61-1.02Q53.64 0.29 50.17 0.29L50.17 0.29Q46.37 0.29 44.32-1.88Q42.26-4.05 42.26-8.03L42.26-8.03Q42.26-11.92 43.75-15.17Q45.23-18.42 47.78-20.07Q50.34-21.72 53.63-21.72L53.63-21.72Q57.50-21.72 60.66-19.81L60.66-19.81L58.50-15.35Q57.14-16.15 56.00-16.55Q54.86-16.95 53.63-16.95ZM73.81-11.53L77.76 0L71.36 0L68.81-8.46L67.39-7.64L65.81 0L60.09 0L64.61-21.39L70.33-21.39L68.36-12.26L68.91-13.12Q70.20-15.21 70.82-15.97L70.82-15.97L75.16-21.39L81.87-21.39L73.81-11.53ZM93.83-4.71L92.83 0L80.13 0L84.65-21.39L97.35-21.39L96.40-16.75L89.42-16.75L88.73-13.38L95.23-13.38L94.18-8.75L87.68-8.75L86.85-4.71L93.83-4.71ZM109.13-16.66L105.66 0L99.94 0L103.41-16.66L98.77-16.66L99.78-21.39L114.82-21.39L113.78-16.66L109.13-16.66Z" transform="translate(-0.48273230299561143, 21.722953634802515)"></path></g></g></g></mask><defs v-gra="od"></defs></g></svg>